<?xml version="1.0" encoding="UTF-8" standalone="no"?>
<!DOCTYPE svg PUBLIC "-//W3C//DTD SVG 1.1//EN" "http://www.w3.org/Graphics/SVG/1.1/DTD/svg11.dtd">
<svg version="1.1" xmlns="http://www.w3.org/2000/svg" xmlns:xlink="http://www.w3.org/1999/xlink" preserveAspectRatio="xMidYMid meet" viewBox="28.25675675675677 177.03608164430406 111.20248209002145 129.4891891891891" width="107.2" height="125.49"><defs><path d="M67.3 210.53C65.48 210.22 50.88 207.81 49.05 207.5C47.81 207.3 46.57 207.68 45.69 208.53C44.93 209.26 38.8 215.14 38.04 215.88C37.17 216.71 36.77 217.88 36.96 219.04C37.15 220.2 37.9 221.21 38.99 221.75C39.91 222.2 47.29 225.87 48.22 226.33C45.92 227.78 43.45 229.09 41.18 230.87C38.77 232.76 38.54 236.06 38.53 237.03C38.5 239.75 41.21 241.79 43.15 242.37C48.22 243.9 53.56 245.33 59.25 247.02C54.76 248.81 53.92 251.36 52.93 254.41C52.21 256.62 51.47 259.15 46.62 262.47C41.54 265.96 36.78 270.21 31.66 274.45C31.16 274.86 30.78 275.4 30.56 275.99C26.65 286.35 31.81 297.97 42.3 302.44C43.54 302.89 44.55 303.65 45.97 303.51C72.87 301.37 77.12 297.25 81.57 293.26C84.97 290.21 88.49 287.06 111.02 285.1C114.68 284.78 116.88 283.03 117.93 279.59C119.25 275.2 120.33 272 121.18 269.46C124.71 258.96 124.63 257.74 122.54 239.01C122.41 237.79 121.34 228.04 121.21 226.82C121.1 225.78 121.56 224.71 122.41 224.03C126.53 220.73 130.05 217.23 134.01 214.05C136.33 212.2 137.1 209.06 135.9 206.42C132.93 199.94 129.89 194.09 127.22 187.52C125.08 182.28 120.58 182.59 118.67 182.72C114.38 183.01 110.91 184.49 107.58 185.89C107.97 185.26 108.16 184.52 108.11 183.78C108.06 182.79 107.57 181.85 106.8 181.2C102.94 177.94 101.65 177.36 96.65 178.73C81.34 182.84 81.2 182.79 79.88 184.43C77.25 187.72 74.3 190.86 70.61 195.7C68.99 197.81 70.13 200.81 72.76 201.45C72.99 201.51 74.9 201.96 75.13 202.02C76.21 202.27 77.18 202.5 78.31 202.81C77.62 203.52 76.92 204.2 76.21 204.89C74.76 206.3 73.32 207.72 72.03 209.25C71.05 210.41 70.02 210.92 67.3 210.53Z" id="bbdU4u7pa"></path><path d="M91.92 223.48C91.15 222.81 89.99 222.81 89.22 223.48C87.47 225.01 73.48 237.26 71.73 238.8C71.11 239.34 70.91 240.16 71.21 240.91C71.51 241.66 72.24 242.14 73.07 242.14C73.26 242.14 74.19 242.14 75.87 242.14C75.87 251.35 75.87 256.46 75.87 257.48C75.87 258.09 76.38 258.59 77.01 258.59C77.97 258.59 85.65 258.59 86.61 258.59C87.24 258.59 87.75 258.09 87.75 257.48C87.75 256.86 87.75 253.76 87.75 248.17L93.39 248.17C93.39 253.76 93.39 256.86 93.39 257.48C93.39 258.09 93.9 258.59 94.54 258.59C95.49 258.59 103.17 258.59 104.13 258.59C104.76 258.59 105.27 258.09 105.27 257.48C105.27 256.46 105.27 251.35 105.27 242.14C106.95 242.14 107.88 242.14 108.07 242.14C108.9 242.14 109.63 241.66 109.93 240.91C110.23 240.16 110.03 239.34 109.42 238.8C105.92 235.73 93.67 225.01 91.92 223.48Z" id="blF1jPIsi"></path><path d="M97.27 225.17L106.12 232.9C106.12 228.93 106.12 226.72 106.12 226.28C106.12 225.67 105.61 225.17 104.97 225.17C103.95 225.17 101.38 225.17 97.27 225.17Z" id="b1JrO5rCgV"></path></defs><g><g><use xlink:href="#bbdU4u7pa" opacity="1" fill="#1c5d20" fill-opacity="1"></use><g><use xlink:href="#bbdU4u7pa" opacity="1" fill-opacity="0" stroke="#000000" stroke-width="1" stroke-opacity="0"></use></g></g><g><use xlink:href="#blF1jPIsi" opacity="1" fill="#c9e265" fill-opacity="1"></use><g><use xlink:href="#blF1jPIsi" opacity="1" fill-opacity="0" stroke="#000000" stroke-width="1" stroke-opacity="0"></use></g></g><g><use xlink:href="#b1JrO5rCgV" opacity="1" fill="#c9e265" fill-opacity="1"></use><g><use xlink:href="#b1JrO5rCgV" opacity="1" fill-opacity="0" stroke="#000000" stroke-width="1" stroke-opacity="0"></use></g></g></g></svg>